<?xml version="1.0" encoding="UTF-8" standalone="no"?>
<!-- Created with Inkscape (http://www.inkscape.org/) -->

<svg
   xmlns:dc="http://purl.org/dc/elements/1.1/"
   xmlns:cc="http://creativecommons.org/ns#"
   xmlns:rdf="http://www.w3.org/1999/02/22-rdf-syntax-ns#"
   xmlns:svg="http://www.w3.org/2000/svg"
   xmlns="http://www.w3.org/2000/svg"
   version="1.0"
   width="600"
   height="600"
   id="svg2">
  <defs
     id="defs4" />
  <metadata
     id="metadata7">
    <rdf:RDF>
      <cc:Work
         rdf:about="">
        <dc:format>image/svg+xml</dc:format>
        <dc:type
           rdf:resource="http://purl.org/dc/dcmitype/StillImage" />
        <dc:title></dc:title>
      </cc:Work>
    </rdf:RDF>
  </metadata>
  <g
     id="layer1">
    <path
       d="M 0,50 C 0,22.38574 22.3853,0 50,0 l 500,0 c 27.6143,0 50,22.38574 50,50 l 0,500 c 0,27.6152 -22.3857,50 -50,50 L 50,600 C 22.3853,600 0,577.6152 0,550 L 0,50 0,50 z"
       id="path5" />
    <path
       d=""
       id="path7" />
    <path
       d="m 587.49999,299.99998 c 0,158.7 -128.8,287.50003 -287.5,287.50003 -158.7,0 -287.500003,-128.80003 -287.500003,-287.50003 0,-158.7 128.800003,-287.499999 287.500003,-287.499999 158.7,0 287.5,128.799999 287.5,287.499999 z"
       id="circle11"
       style="fill:#ffffff" />
    <path
       d=""
       id="path1446"
       style="fill:#ffffff" />
    <g
       id="text1327"
       style="font-size:372.02542114px;font-style:normal;font-variant:normal;font-weight:normal;font-stretch:normal;text-align:center;line-height:100%;writing-mode:lr-tb;text-anchor:middle;font-family:Roadgeek 2005 Series C">
      <path
         d="m 69.664326,425 0,-214.28246 -20.095367,0 0,-19.34605 c 6.448664,-1.24106 11.780932,-3.04056 15.99682,-5.3985 4.215832,-2.35747 8.431692,-5.76914 12.647593,-10.23502 l 23.069938,0 0,249.26203 z"
         id="path3261"
         style="letter-spacing:-9.88142204;font-family:Roadgeek 2005 Series B;-inkscape-font-specification:Roadgeek 2005 Series B" />
      <path
         d="m 254.77608,300 c -0.24991,6.94078 -0.43724,14.93918 -0.56199,23.99523 -0.12502,9.05626 -0.62078,18.3584 -1.48728,27.90645 -0.86677,9.5482 -2.35405,18.909 -4.46185,28.08243 -2.10807,9.17351 -5.26996,17.35735 -9.4857,24.55154 -4.21598,7.19423 -9.67313,12.96171 -16.37148,17.30245 -6.69855,4.34075 -15.13027,6.51112 -25.29519,6.51113 -10.41484,-10e-6 -19.09444,-2.17038 -26.03882,-6.51113 -6.94449,-4.34074 -12.58708,-10.10822 -16.9278,-17.30245 -4.34078,-7.19419 -7.62756,-15.37803 -9.86035,-24.55154 -2.23284,-9.17343 -3.78446,-18.53423 -4.65486,-28.08243 -0.87044,-9.54805 -1.30565,-18.85019 -1.30563,-27.90645 -2e-5,-9.05605 -2e-5,-17.05445 0,-23.99523 -2e-5,-7.44007 0.12487,-15.7488 0.37466,-24.9262 0.24975,-9.1771 0.93284,-18.53979 2.04927,-28.0881 1.11639,-9.54795 2.85344,-18.8482 5.21117,-27.90077 2.35768,-9.05216 5.70501,-17.11301 10.04201,-24.18256 4.33693,-7.0691 9.85463,-12.77413 16.55313,-17.11512 6.6984,-4.3405 14.88413,-6.51088 24.55722,-6.51113 10.16492,2.5e-4 18.65908,2.17063 25.48252,6.51113 6.82323,4.34099 12.34283,10.04602 16.55881,17.11512 4.21574,7.06955 7.43818,15.1304 9.66735,24.18256 2.2289,9.05257 3.77862,18.35282 4.64918,27.90077 0.87028,9.54831 1.30549,18.97344 1.30563,28.27543 -1.4e-4,9.30229 -1.4e-4,17.54857 0,24.73887 z m -33.48092,0 c -1.1e-4,-2.97444 0.0623,-7.37573 0.18733,-13.2039 0.12478,-5.82789 0.0623,-12.27657 -0.18733,-19.34605 -0.24988,-7.06917 -0.74753,-14.32393 -1.49297,-21.7643 -0.74563,-7.44002 -1.98503,-14.26147 -3.71821,-20.46435 -1.73336,-6.20249 -4.15162,-11.28688 -7.25476,-15.25318 -3.10333,-3.96588 -7.00887,-6.07381 -11.71663,-6.3238 -4.71548,0.24999 -8.68535,2.35792 -11.90962,6.3238 -3.22441,3.9663 -5.8281,9.05069 -7.81108,15.25318 -1.98311,6.20288 -3.47039,13.02433 -4.46186,20.46435 -0.99157,7.44037 -1.61222,14.69513 -1.86194,21.7643 -0.24982,7.06948 -0.37471,13.51816 -0.37466,19.34605 -5e-5,5.82817 -5e-5,10.22946 0,13.2039 -5e-5,2.97469 -5e-5,7.37599 0,13.20391 -5e-5,5.82814 0.12484,12.27682 0.37466,19.34605 0.24972,7.06941 0.87037,14.38662 1.86194,21.95163 0.99147,7.56516 2.47875,14.3866 4.46186,20.46435 1.98298,6.07785 4.52423,11.0998 7.62375,15.06585 3.09938,3.96612 7.1317,5.94917 12.09695,5.94914 4.70776,3e-5 8.55086,-1.92247 11.5293,-5.76749 2.97826,-3.84495 5.33596,-8.86689 7.07311,-15.06585 1.73696,-6.19885 3.0388,-13.0184 3.90554,-20.45867 0.86654,-7.44013 1.42474,-14.69489 1.67462,-21.7643 0.24967,-7.06924 0.31211,-13.58035 0.18733,-19.53338 C 221.3575,307.43843 221.29505,302.97469 221.29516,300 z"
         id="path3263"
         style="letter-spacing:-9.88142204;font-family:Roadgeek 2005 Series B;-inkscape-font-specification:Roadgeek 2005 Series B" />
      <path
         d="m 399.66305,300 c -0.24991,6.94078 -0.43724,14.93918 -0.56199,23.99523 -0.12502,9.05626 -0.62078,18.3584 -1.48728,27.90645 -0.86677,9.5482 -2.35405,18.909 -4.46185,28.08243 -2.10806,9.17351 -5.26996,17.35735 -9.4857,24.55154 -4.21598,7.19423 -9.67313,12.96171 -16.37148,17.30245 -6.69855,4.34075 -15.13027,6.51112 -25.29518,6.51113 -10.41485,-10e-6 -19.09445,-2.17038 -26.03883,-6.51113 -6.94449,-4.34074 -12.58708,-10.10822 -16.92779,-17.30245 -4.34079,-7.19419 -7.62757,-15.37803 -9.86036,-24.55154 -2.23284,-9.17343 -3.78446,-18.53423 -4.65486,-28.08243 -0.87044,-9.54805 -1.30565,-18.85019 -1.30563,-27.90645 -2e-5,-9.05605 -2e-5,-17.05445 0,-23.99523 -2e-5,-7.44007 0.12487,-15.7488 0.37466,-24.9262 0.24975,-9.1771 0.93284,-18.53979 2.04927,-28.0881 1.11639,-9.54795 2.85344,-18.8482 5.21118,-27.90077 2.35767,-9.05216 5.705,-17.11301 10.042,-24.18256 4.33693,-7.0691 9.85463,-12.77413 16.55314,-17.11512 6.69839,-4.3405 14.88412,-6.51088 24.55722,-6.51113 10.16491,2.5e-4 18.65907,2.17063 25.48251,6.51113 6.82323,4.34099 12.34283,10.04602 16.55881,17.11512 4.21574,7.06955 7.43819,15.1304 9.66735,24.18256 2.2289,9.05257 3.77863,18.35282 4.64918,27.90077 0.87029,9.54831 1.3055,18.97344 1.30563,28.27543 -1.3e-4,9.30229 -1.3e-4,17.54857 0,24.73887 z m -33.48092,0 c -1.1e-4,-2.97444 0.0623,-7.37573 0.18733,-13.2039 0.12478,-5.82789 0.0623,-12.27657 -0.18733,-19.34605 -0.24988,-7.06917 -0.74753,-14.32393 -1.49296,-21.7643 -0.74564,-7.44002 -1.98504,-14.26147 -3.71822,-20.46435 -1.73336,-6.20249 -4.15162,-11.28688 -7.25476,-15.25318 -3.10333,-3.96588 -7.00887,-6.07381 -11.71662,-6.3238 -4.71549,0.24999 -8.68536,2.35792 -11.90963,6.3238 -3.22441,3.9663 -5.8281,9.05069 -7.81108,15.25318 -1.98311,6.20288 -3.47039,13.02433 -4.46186,20.46435 -0.99157,7.44037 -1.61222,14.69513 -1.86194,21.7643 -0.24982,7.06948 -0.37471,13.51816 -0.37466,19.34605 -5e-5,5.82817 -5e-5,10.22946 0,13.2039 -5e-5,2.97469 -5e-5,7.37599 0,13.20391 -5e-5,5.82814 0.12484,12.27682 0.37466,19.34605 0.24972,7.06941 0.87037,14.38662 1.86194,21.95163 0.99147,7.56516 2.47875,14.3866 4.46186,20.46435 1.98298,6.07785 4.52423,11.0998 7.62375,15.06585 3.09938,3.96612 7.1317,5.94917 12.09696,5.94914 4.70775,3e-5 8.55085,-1.92247 11.52929,-5.76749 2.97826,-3.84495 5.33596,-8.86689 7.07311,-15.06585 1.73696,-6.19885 3.03881,-13.0184 3.90554,-20.45867 0.86654,-7.44013 1.42474,-14.69489 1.67462,-21.7643 0.24967,-7.06924 0.31211,-13.58035 0.18733,-19.53338 -0.12499,-5.95281 -0.18744,-10.41655 -0.18733,-13.39124 z"
         id="path3265"
         style="letter-spacing:-9.88142204;font-family:Roadgeek 2005 Series B;-inkscape-font-specification:Roadgeek 2005 Series B" />
      <path
         d="m 544.55001,300 c -0.2499,6.94078 -0.43723,14.93918 -0.56198,23.99523 -0.12503,9.05626 -0.62079,18.3584 -1.48729,27.90645 -0.86677,9.5482 -2.35405,18.909 -4.46185,28.08243 -2.10806,9.17351 -5.26996,17.35735 -9.4857,24.55154 -4.21598,7.19423 -9.67313,12.96171 -16.37148,17.30245 -6.69855,4.34075 -15.13027,6.51112 -25.29518,6.51113 -10.41484,-10e-6 -19.09444,-2.17038 -26.03883,-6.51113 -6.94449,-4.34074 -12.58708,-10.10822 -16.92779,-17.30245 -4.34078,-7.19419 -7.62757,-15.37803 -9.86036,-24.55154 -2.23284,-9.17343 -3.78446,-18.53423 -4.65485,-28.08243 -0.87045,-9.54805 -1.30566,-18.85019 -1.30564,-27.90645 -2e-5,-9.05605 -2e-5,-17.05445 0,-23.99523 -2e-5,-7.44007 0.12487,-15.7488 0.37466,-24.9262 0.24976,-9.1771 0.93285,-18.53979 2.04928,-28.0881 1.11638,-9.54795 2.85344,-18.8482 5.21117,-27.90077 2.35767,-9.05216 5.70501,-17.11301 10.04201,-24.18256 4.33692,-7.0691 9.85462,-12.77413 16.55313,-17.11512 6.69839,-4.3405 14.88412,-6.51088 24.55722,-6.51113 10.16491,2.5e-4 18.65907,2.17063 25.48251,6.51113 6.82323,4.34099 12.34283,10.04602 16.55881,17.11512 4.21574,7.06955 7.43819,15.1304 9.66735,24.18256 2.2289,9.05257 3.77863,18.35282 4.64918,27.90077 0.87029,9.54831 1.3055,18.97344 1.30563,28.27543 -1.3e-4,9.30229 -1.3e-4,17.54857 0,24.73887 z m -33.48092,0 c -1e-4,-2.97444 0.0623,-7.37573 0.18733,-13.2039 0.12478,-5.82789 0.0623,-12.27657 -0.18733,-19.34605 -0.24988,-7.06917 -0.74753,-14.32393 -1.49296,-21.7643 -0.74564,-7.44002 -1.98504,-14.26147 -3.71821,-20.46435 -1.73337,-6.20249 -4.15163,-11.28688 -7.25477,-15.25318 -3.10333,-3.96588 -7.00886,-6.07381 -11.71662,-6.3238 -4.71549,0.24999 -8.68536,2.35792 -11.90963,6.3238 -3.2244,3.9663 -5.8281,9.05069 -7.81108,15.25318 -1.9831,6.20288 -3.47039,13.02433 -4.46185,20.46435 -0.99158,7.44037 -1.61223,14.69513 -1.86195,21.7643 -0.24982,7.06948 -0.37471,13.51816 -0.37466,19.34605 -5e-5,5.82817 -5e-5,10.22946 0,13.2039 -5e-5,2.97469 -5e-5,7.37599 0,13.20391 -5e-5,5.82814 0.12484,12.27682 0.37466,19.34605 0.24972,7.06941 0.87037,14.38662 1.86195,21.95163 0.99146,7.56516 2.47875,14.3866 4.46185,20.46435 1.98298,6.07785 4.52423,11.0998 7.62375,15.06585 3.09939,3.96612 7.1317,5.94917 12.09696,5.94914 4.70776,3e-5 8.55085,-1.92247 11.52929,-5.76749 2.97826,-3.84495 5.33596,-8.86689 7.07311,-15.06585 1.73696,-6.19885 3.03881,-13.0184 3.90555,-20.45867 0.86653,-7.44013 1.42473,-14.69489 1.67461,-21.7643 0.24967,-7.06924 0.31211,-13.58035 0.18733,-19.53338 -0.12499,-5.95281 -0.18743,-10.41655 -0.18733,-13.39124 z"
         id="path3267"
         style="letter-spacing:-9.88142204;font-family:Roadgeek 2005 Series B;-inkscape-font-specification:Roadgeek 2005 Series B" />
    </g>
    <path
       d="m 587.00096,299.99995 c 0,158.4245 -128.57644,287.00091 -287.00094,287.00091 -158.42447,0 -287.000876,-128.57641 -287.000876,-287.00091 0,-158.4245 128.576406,-287.000906 287.000876,-287.000906 158.4245,0 287.00094,128.576406 287.00094,287.000906 z"
       id="circle1313"
       style="fill:none;stroke:#000000;stroke-width:0.99826401;stroke-miterlimit:4;stroke-opacity:1" />
    <path
       d=""
       id="path1315"
       style="fill:none;stroke:#000000;stroke-width:0.99826401;stroke-miterlimit:4;stroke-opacity:1;stroke-dasharray:none" />
  </g>
</svg>
